<svg id="visual" viewBox="0 0 900 600" width="900" height="600" xmlns="http://www.w3.org/2000/svg" xmlns:xlink="http://www.w3.org/1999/xlink" version="1.1"><path d="M0 169L75 169C150 169 300 169 450 168C600 167 750 165 825 164L900 163L900 0L825 0C750 0 600 0 450 0C300 0 150 0 75 0L0 0Z" fill="#305b9a"></path><path d="M0 427L75 427C150 427 300 427 450 414C600 401 750 375 825 362L900 349L900 161L825 162C750 163 600 165 450 166C300 167 150 167 75 167L0 167Z" fill="#0a3871"></path><path d="M0 601L75 601C150 601 300 601 450 601C600 601 750 601 825 601L900 601L900 347L825 360C750 373 600 399 450 412C300 425 150 425 75 425L0 425Z" fill="#022b53"></path></svg>